<svg width="80" height="80" viewBox="0 0 80 80" fill="none" xmlns="http://www.w3.org/2000/svg"><rect width="80" height="80" rx="40" fill="#0F0F0F"/><rect x=".5" y=".5" width="79" height="79" rx="39.5" stroke="#fff" stroke-opacity=".04"/><path d="M28.2 31.248v2.712h-6.985v4.296h5.352v2.664h-5.352V48h-3.36V31.248zm20.814 3.456L45.126 48h-3.624l-2.424-9.288L36.654 48h-3.648l-3.912-13.296h3.408l2.352 10.128 2.544-10.128h3.552l2.496 10.104 2.352-10.104zm7.602 13.464q-1.752 0-3.168-.6-1.392-.6-2.208-1.728t-.84-2.664H54q.072 1.032.72 1.632.672.6 1.824.6 1.176 0 1.848-.552.672-.576.672-1.488 0-.744-.456-1.224a3.05 3.05 0 0 0-1.152-.744q-.672-.288-1.872-.624-1.632-.48-2.664-.936a4.94 4.94 0 0 1-1.752-1.416q-.72-.96-.72-2.544 0-1.488.744-2.592t2.088-1.68q1.344-.6 3.072-.6 2.592 0 4.2 1.272 1.632 1.248 1.8 3.504h-3.696q-.048-.864-.744-1.416-.672-.576-1.8-.576-.984 0-1.584.504-.576.504-.576 1.464 0 .672.432 1.128.456.432 1.104.72.672.264 1.872.624 1.632.48 2.664.96t1.776 1.44.744 2.52a4.74 4.74 0 0 1-.696 2.496q-.696 1.152-2.04 1.848-1.344.672-3.192.672" fill="url(#a)"/><defs><radialGradient id="a" cx="0" cy="0" r="1" gradientUnits="userSpaceOnUse" gradientTransform="matrix(0 24.5 -38.0931 0 40 31.5)"><stop stop-color="#01FFE1"/><stop offset="1" stop-color="#00F8DA" stop-opacity=".5"/></radialGradient></defs></svg>