<svg width="80" height="80" viewBox="0 0 80 80" fill="none" xmlns="http://www.w3.org/2000/svg"><path fill-rule="evenodd" clip-rule="evenodd" d="M40.223 0a15.555 15.555 0 0 0 10.15 26.649 15.55 15.55 0 0 0 16.454 8.724q-.165 1.197-.164 2.405c0 7.71 4.813 14.115 11.124 15.342A40 40 0 1 1 39.996 0zm-.227 57.778a4.444 4.444 0 1 0 0 8.889 4.444 4.444 0 0 0 0-8.89m-20-8.89a2.222 2.222 0 1 0 0 4.444 2.222 2.222 0 0 0 0-4.443m31.111-4.444a2.222 2.222 0 1 0 0 4.445 2.222 2.222 0 0 0 0-4.445M24.441 22.222a6.667 6.667 0 1 0 0 13.334 6.667 6.667 0 0 0 0-13.334m37.777-8.889a4.444 4.444 0 1 1 0 8.89 4.444 4.444 0 0 1 0-8.89m15.556 4.445a2.222 2.222 0 1 1 0 4.444 2.222 2.222 0 0 1 0-4.444M51.107 4.444a2.222 2.222 0 1 1 0 4.445 2.222 2.222 0 0 1 0-4.445" fill="url(#a)"/><defs><radialGradient id="a" cx="0" cy="0" r="1" gradientUnits="userSpaceOnUse" gradientTransform="matrix(40.00006 79.99995 -79.99601 39.9981 40 0)"><stop stop-color="#fff"/><stop offset="1" stop-color="#fff" stop-opacity=".8"/></radialGradient></defs></svg>