<svg width="238" height="30" viewBox="0 0 238 30" fill="none" xmlns="http://www.w3.org/2000/svg"><rect x=".5" y=".5" width="237" height="29" rx="14.5" stroke="#fff" stroke-opacity=".08"/><path d="M22.907 12.364a1.56 1.56 0 0 0-.726-1.174q-.637-.417-1.561-.417-.677 0-1.184.219a1.9 1.9 0 0 0-.785.601 1.44 1.44 0 0 0-.279.87q0 .408.194.701.2.288.508.482.307.189.646.313.337.12.621.194l1.034.279q.397.104.885.288.492.184.94.502.453.315.746.806t.293 1.208a2.7 2.7 0 0 1-.433 1.491q-.427.666-1.252 1.06-.82.392-1.994.392-1.094 0-1.894-.353-.795-.353-1.253-.984a2.8 2.8 0 0 1-.512-1.467h1.273q.05.577.387.954.344.375.866.557.526.18 1.133.18.705 0 1.268-.23.56-.232.89-.646.328-.417.328-.974 0-.507-.284-.825a2.1 2.1 0 0 0-.745-.517 8 8 0 0 0-1-.348l-1.252-.358q-1.194-.344-1.89-.98-.696-.637-.696-1.665 0-.855.463-1.492.467-.641 1.253-.994a4.2 4.2 0 0 1 1.764-.358q.985 0 1.75.353.766.348 1.213.954.453.607.478 1.378zm3.2 7.636v-7.636h1.173V20zm.597-8.91a.83.83 0 0 1-.592-.233.75.75 0 0 1-.244-.561.75.75 0 0 1 .244-.562.84.84 0 0 1 .592-.234q.343 0 .586.234a.74.74 0 0 1 .249.562.74.74 0 0 1-.249.561.82.82 0 0 1-.586.234M29.429 20v-7.636h1.134v1.193h.1q.237-.611.77-.95.532-.342 1.278-.343.755 0 1.257.343.508.338.79.95h.08q.294-.592.88-.94.587-.353 1.407-.353 1.025 0 1.676.642.651.636.651 1.983V20H38.28v-5.11q0-.846-.463-1.209a1.7 1.7 0 0 0-1.088-.363q-.806 0-1.248.487-.443.483-.443 1.223V20h-1.193v-5.23q0-.651-.422-1.05-.423-.402-1.09-.402-.457 0-.854.244a1.84 1.84 0 0 0-.637.676q-.238.428-.238.99V20zm12.168 2.864v-10.5h1.134v1.213h.139q.13-.2.358-.507.234-.315.666-.557.438-.249 1.183-.249.965 0 1.7.482.736.483 1.15 1.368.412.885.412 2.088 0 1.213-.413 2.103-.412.885-1.143 1.372-.732.482-1.686.482-.735 0-1.178-.243a2.2 2.2 0 0 1-.681-.562 8 8 0 0 1-.368-.527h-.1v4.037zm1.154-6.682q0 .865.253 1.526.254.656.741 1.03.488.367 1.193.367.736 0 1.228-.388a2.37 2.37 0 0 0 .746-1.054q.254-.666.254-1.481 0-.805-.25-1.452a2.24 2.24 0 0 0-.74-1.029q-.492-.383-1.238-.383-.715 0-1.203.363-.487.359-.736 1.004-.248.642-.248 1.497m8.55-6.364V20H50.13V9.818zM53.452 20v-7.636h1.173V20zm.596-8.91a.83.83 0 0 1-.591-.233.75.75 0 0 1-.244-.561.75.75 0 0 1 .244-.562.83.83 0 0 1 .591-.234q.344 0 .587.234a.74.74 0 0 1 .249.562.74.74 0 0 1-.249.561.82.82 0 0 1-.587.234m6.127 1.274v.994h-4.117v-.994zM57.29 20v-8.69q0-.656.308-1.094a1.9 1.9 0 0 1 .8-.656 2.5 2.5 0 0 1 1.04-.22q.432 0 .706.07t.407.13l-.338 1.014a6 6 0 0 0-.248-.075 1.5 1.5 0 0 0-.408-.044q-.582 0-.84.293-.254.293-.254.86V20zm4.528 0v-7.636h1.173V20zm.597-8.91a.83.83 0 0 1-.592-.233.75.75 0 0 1-.244-.561.75.75 0 0 1 .244-.562.83.83 0 0 1 .592-.234q.343 0 .586.234a.74.74 0 0 1 .249.562.74.74 0 0 1-.249.561.82.82 0 0 1-.586.234m5.828 9.07q-1.074 0-1.85-.508a3.3 3.3 0 0 1-1.193-1.397q-.418-.89-.418-2.033 0-1.164.428-2.054a3.4 3.4 0 0 1 1.203-1.397q.775-.507 1.81-.507.805 0 1.451.299.646.297 1.06.835.412.537.511 1.253h-1.173q-.134-.523-.597-.925-.456-.408-1.232-.408-.687 0-1.204.358-.512.354-.8 1-.283.641-.283 1.506 0 .885.278 1.541.283.656.796 1.02.516.362 1.213.362.457 0 .83-.159.373-.16.631-.457.258-.3.368-.716h1.173q-.099.676-.492 1.218a2.75 2.75 0 0 1-1.029.855q-.636.313-1.481.313m6.965.019q-.726 0-1.318-.273a2.26 2.26 0 0 1-.94-.8q-.347-.528-.347-1.274 0-.656.258-1.064.258-.412.691-.646t.955-.348q.526-.12 1.059-.189.696-.09 1.128-.134.438-.05.637-.164.203-.114.203-.398v-.04q0-.735-.402-1.143-.398-.408-1.208-.408-.84 0-1.318.368-.477.367-.671.786l-1.114-.398q.299-.696.796-1.084a3 3 0 0 1 1.094-.547 4.5 4.5 0 0 1 1.173-.159q.368 0 .845.09.482.084.93.353.452.269.75.81.3.541.299 1.452V20h-1.174v-1.034h-.06q-.118.249-.397.532-.28.284-.74.482-.463.2-1.13.199m.179-1.054q.696 0 1.173-.273a1.86 1.86 0 0 0 .974-1.616v-1.074q-.075.09-.328.164a6 6 0 0 1-.576.124 26 26 0 0 1-1.124.15q-.458.06-.855.193a1.5 1.5 0 0 0-.636.393q-.24.259-.24.706 0 .612.453.925.457.308 1.159.308m12.72-6.761v.994H84.15v-.994zm-2.803-1.83h1.173v7.278q0 .498.144.746.15.244.378.328.234.08.492.08.195 0 .319-.02l.198-.04.239 1.054q-.12.045-.333.09a2.5 2.5 0 0 1-.542.05q-.497 0-.975-.214a1.94 1.94 0 0 1-.785-.652q-.309-.437-.308-1.103zm9.381 6.344v-4.514h1.174V20h-1.174v-1.293h-.08a2.5 2.5 0 0 1-.835.99q-.566.402-1.431.402a2.55 2.55 0 0 1-1.273-.313 2.2 2.2 0 0 1-.875-.954q-.318-.642-.318-1.616v-4.852h1.173v4.772q0 .835.467 1.333.472.497 1.203.497.438 0 .89-.224.457-.224.766-.686.313-.462.313-1.178m7.42 3.122V9.818h6.105v1.094h-4.872v3.44h4.415v1.094h-4.415V20zm9.231-10.182V20h-1.173V9.818zm6.962 7.06v-4.514h1.173V20h-1.173v-1.293h-.08a2.5 2.5 0 0 1-.835.99q-.567.402-1.432.402-.716 0-1.273-.313a2.2 2.2 0 0 1-.875-.954q-.318-.642-.318-1.616v-4.852h1.173v4.772q0 .835.468 1.333.472.497 1.203.497.437 0 .89-.224.457-.224.765-.686.314-.462.314-1.178m3.322-4.514h1.173v8.193q0 .705-.244 1.223a1.76 1.76 0 0 1-.725.8q-.483.285-1.218.284h-.239V21.77h.219q.537 0 .785-.318.249-.314.249-.895zm.576-1.273a.83.83 0 0 1-.591-.234.75.75 0 0 1-.244-.561q0-.33.244-.562a.83.83 0 0 1 .591-.234q.344 0 .587.234a.74.74 0 0 1 .249.562.74.74 0 0 1-.249.561.82.82 0 0 1-.587.234m5.848 9.068q-1.034 0-1.814-.492a3.34 3.34 0 0 1-1.213-1.377q-.433-.886-.433-2.068 0-1.194.433-2.084a3.33 3.33 0 0 1 1.213-1.382q.78-.492 1.814-.492t1.81.492q.78.494 1.213 1.383.438.89.438 2.083 0 1.183-.438 2.068a3.3 3.3 0 0 1-1.213 1.377q-.775.492-1.81.492m0-1.054q.786 0 1.293-.403a2.4 2.4 0 0 0 .751-1.059q.243-.656.243-1.421t-.243-1.427a2.4 2.4 0 0 0-.751-1.07q-.507-.406-1.293-.407t-1.292.408a2.4 2.4 0 0 0-.751 1.069q-.243.66-.244 1.427 0 .765.244 1.421.243.656.751 1.06.507.402 1.292.402m12.073 1.054q-.956 0-1.686-.482-.73-.487-1.143-1.372-.413-.891-.413-2.103 0-1.203.413-2.088t1.148-1.368q.736-.482 1.7-.482.746 0 1.179.249.436.243.666.557.234.307.363.507h.099V9.818h1.174V20h-1.134v-1.173h-.139a8 8 0 0 1-.368.527 2.2 2.2 0 0 1-.681.562q-.443.243-1.178.243m.159-1.054q.705 0 1.193-.368.487-.372.741-1.029.253-.661.253-1.526 0-.856-.248-1.497-.249-.645-.736-1.004-.488-.363-1.203-.363-.746 0-1.243.383a2.3 2.3 0 0 0-.741 1.03 4.1 4.1 0 0 0-.244 1.45q0 .816.249 1.482.254.662.746 1.054.496.388 1.233.388m8.854 1.054q-1.104 0-1.904-.487a3.27 3.27 0 0 1-1.228-1.372q-.428-.885-.428-2.059 0-1.173.428-2.068.432-.9 1.203-1.402.775-.507 1.81-.507.596 0 1.178.2.582.198 1.059.645.477.443.761 1.174.283.73.283 1.8v.497h-5.886v-1.015h4.693q0-.646-.259-1.153a1.95 1.95 0 0 0-.726-.8q-.467-.294-1.103-.294-.702 0-1.213.348a2.3 2.3 0 0 0-.781.895 2.6 2.6 0 0 0-.273 1.183v.677q0 .864.298 1.466.303.597.84.91.537.308 1.248.308.462 0 .835-.13.378-.133.652-.397.273-.268.422-.666l1.134.318q-.18.578-.602 1.014-.423.433-1.044.677-.621.238-1.397.238m8.884-.159v-7.636h1.174V20zm.597-8.91a.84.84 0 0 1-.592-.233.75.75 0 0 1-.243-.561q0-.33.243-.562a.84.84 0 0 1 .592-.234q.343 0 .587.234a.75.75 0 0 1 .248.562.75.75 0 0 1-.248.561.82.82 0 0 1-.587.234m3.899 4.316V20h-1.173v-7.636h1.133v1.193h.1q.268-.582.815-.935.546-.358 1.412-.358.775 0 1.357.318.582.314.905.955.323.636.323 1.61V20h-1.173v-4.773q0-.9-.468-1.402-.467-.507-1.282-.507-.562 0-1.005.244-.437.244-.691.71-.253.468-.253 1.134m12.987-3.042L172.672 20h-1.193l-2.824-7.636h1.273l2.108 6.085h.079l2.108-6.085zm4.477 7.795q-1.104 0-1.904-.487a3.26 3.26 0 0 1-1.228-1.372q-.428-.885-.428-2.059 0-1.173.428-2.068.432-.9 1.203-1.402.775-.507 1.81-.507.596 0 1.178.2.582.198 1.059.645.477.443.76 1.174t.284 1.8v.497h-5.887v-1.015h4.694q0-.646-.259-1.153a1.95 1.95 0 0 0-.726-.8q-.467-.294-1.103-.294-.701 0-1.214.348a2.3 2.3 0 0 0-.78.895 2.6 2.6 0 0 0-.274 1.183v.677q0 .864.299 1.466.303.597.84.91.537.308 1.248.308.462 0 .835-.13.378-.133.651-.397.274-.268.423-.666l1.133.318a2.5 2.5 0 0 1-.601 1.014q-.423.433-1.044.677-.621.238-1.397.238m6.12-4.753V20h-1.173v-7.636h1.133v1.193h.1q.267-.582.815-.935.546-.358 1.412-.358.775 0 1.357.318.582.314.905.955.323.636.323 1.61V20h-1.173v-4.773q0-.9-.468-1.402-.467-.507-1.282-.507-.563 0-1.005.244-.437.244-.691.71-.253.468-.253 1.134m10.337-3.042v.994h-3.957v-.994zm-2.804-1.83h1.173v7.278q0 .498.145.746a.75.75 0 0 0 .377.328q.234.08.493.08.194 0 .318-.02l.199-.04.238 1.054q-.119.045-.333.09-.213.05-.542.05a2.4 2.4 0 0 1-.974-.214 1.94 1.94 0 0 1-.786-.652q-.308-.437-.308-1.103zm6.816 9.645a3.1 3.1 0 0 1-1.317-.273 2.26 2.26 0 0 1-.94-.8q-.348-.528-.348-1.274 0-.656.259-1.064.258-.412.691-.646t.954-.348q.527-.12 1.059-.189.696-.09 1.129-.134.436-.05.636-.164.204-.114.204-.398v-.04q0-.735-.403-1.143-.398-.408-1.208-.408-.84 0-1.317.368-.478.367-.672.786l-1.113-.398q.299-.696.795-1.084.503-.393 1.094-.547.597-.159 1.173-.159.368 0 .845.09.483.084.93.353.453.269.751.81t.298 1.452V20h-1.173v-1.034h-.06a2 2 0 0 1-.398.532q-.278.284-.74.482-.463.2-1.129.199m.179-1.054q.696 0 1.173-.273.483-.274.726-.706.249-.433.249-.91v-1.074q-.075.09-.328.164a6 6 0 0 1-.577.124 26 26 0 0 1-1.124.15q-.457.06-.855.193a1.5 1.5 0 0 0-.636.393q-.239.259-.239.706 0 .612.453.925.458.308 1.158.308m5.463.875v-7.636h1.133v1.153h.08q.209-.566.755-.92a2.23 2.23 0 0 1 1.233-.353q.13 0 .323.005.195.006.294.015v1.193a4 4 0 0 0-.274-.044 3 3 0 0 0-.442-.035q-.557 0-.994.233a1.71 1.71 0 0 0-.935 1.556V20zm5.209 0v-7.636h1.173V20zm.596-8.91a.83.83 0 0 1-.591-.233.75.75 0 0 1-.244-.561q0-.33.244-.562a.83.83 0 0 1 .591-.234q.343 0 .587.234a.74.74 0 0 1 .248.562.74.74 0 0 1-.248.561.82.82 0 0 1-.587.234m5.828 9.07q-1.034 0-1.814-.493a3.34 3.34 0 0 1-1.214-1.377q-.432-.886-.432-2.068 0-1.194.432-2.084.438-.889 1.214-1.382.78-.492 1.814-.492t1.81.492q.78.494 1.213 1.383.438.89.437 2.083 0 1.183-.437 2.068a3.3 3.3 0 0 1-1.213 1.377q-.775.492-1.81.492m0-1.055q.786 0 1.293-.403a2.37 2.37 0 0 0 .75-1.059q.244-.656.244-1.421t-.244-1.427a2.4 2.4 0 0 0-.75-1.07q-.507-.406-1.293-.407t-1.292.408a2.4 2.4 0 0 0-.751 1.069q-.244.66-.244 1.427 0 .765.244 1.421.243.656.751 1.06.507.402 1.292.402" fill="#fff" fill-opacity=".72"/></svg>